<svg height="200px" width="200px" version="1.1" id="Layer_1" xmlns="http://www.w3.org/2000/svg" xmlns:xlink="http://www.w3.org/1999/xlink" viewBox="0 0 503.322 503.322" xml:space="preserve" fill="#000000" transform="rotate(0)"><g id="SVGRepo_bgCarrier" stroke-width="0"></g><g id="SVGRepo_tracerCarrier" stroke-linecap="round" stroke-linejoin="round" stroke="#CCCCCC" stroke-width="1.006644"></g><g id="SVGRepo_iconCarrier"> <g> <path style="fill:#C4A316;" d="M208.27,433.898h86.78V225.627h-86.78V433.898z"></path> <path style="fill:#F8D832;" d="M208.27,433.898h86.78l-6.717,26.85c-1.154,4.625-5.302,7.862-10.066,7.862h-53.213 c-4.764,0-8.912-3.237-10.066-7.862L208.27,433.898z"></path> <path style="fill:#C4A316;" d="M282.348,503.322h-61.379c-7.012,0-12.696-5.684-12.696-12.704v-9.303 c0-7.02,5.684-12.705,12.696-12.705h61.379c7.012,0,12.705,5.684,12.705,12.705v9.303 C295.052,497.638,289.359,503.322,282.348,503.322"></path> <path style="fill:#F8D832;" d="M295.05,225.627h-86.78l17.356-34.712h52.068L295.05,225.627z"></path> <path style="fill:#C4A316;" d="M225.626,190.915h52.068v-52.068h-52.068V190.915z"></path> <path style="fill:#F8D832;" d="M277.694,138.847h-52.068c0-34.53,5.042-68.868,14.961-101.94L251.66,0l11.073,36.907 C272.652,69.979,277.694,104.318,277.694,138.847"></path> </g> </g></svg>